<svg width="23" height="27" viewBox="0 0 23 27" fill="none" xmlns="http://www.w3.org/2000/svg">
<path d="M17.4386 0H3.60068L0 13.4143L5.12365 20.0912H12.0829L17.2066 26.768L22.5925 6.70714L17.4386 0ZM16.7124 10.5902C16.7124 10.7819 16.551 10.9432 16.3594 10.9432C15.2903 10.9432 14.7557 12.2342 15.5122 12.9907C15.6534 13.1319 15.6534 13.3538 15.5122 13.495L14.7456 14.2615C14.6044 14.4027 14.3825 14.4027 14.2413 14.2615C13.4849 13.5051 12.1939 14.0396 12.1939 15.1087C12.1939 15.3104 12.0325 15.4617 11.8409 15.4617H10.7617C10.57 15.4617 10.4087 15.3003 10.4087 15.1087C10.4087 14.0396 9.11768 13.5051 8.36123 14.2615C8.22003 14.4027 7.99814 14.4027 7.85694 14.2615L7.09041 13.495C6.9492 13.3538 6.9492 13.1319 7.09041 12.9907C7.84685 12.2342 7.3123 10.9432 6.24319 10.9432C6.05156 10.9432 5.89018 10.7819 5.89018 10.5902V9.51103C5.89018 9.3194 6.05156 9.15802 6.24319 9.15802C7.3123 9.15802 7.84685 7.86702 7.09041 7.11058C6.9492 6.96937 6.9492 6.74748 7.09041 6.60628L7.85694 5.83975C7.99814 5.69855 8.22003 5.69855 8.36123 5.83975C9.11768 6.59619 10.4087 6.06164 10.4087 4.99253C10.4087 4.8009 10.57 4.63953 10.7617 4.63953H11.8409C12.0325 4.63953 12.1939 4.8009 12.1939 4.99253C12.1939 6.06164 13.4849 6.59619 14.2413 5.83975C14.3825 5.69855 14.6044 5.69855 14.7456 5.83975L15.5122 6.60628C15.6534 6.74748 15.6534 6.96937 15.5122 7.11058C14.7557 7.86702 15.2903 9.15802 16.3594 9.15802C16.5611 9.15802 16.7124 9.3194 16.7124 9.51103V10.5902Z" fill="#FFCC00"/>
</svg>
