<svg width="46" height="46" viewBox="0 0 46 46" fill="none" xmlns="http://www.w3.org/2000/svg">
<path d="M25.875 2.15625C25.875 0.988281 26.7734 0 28.0312 0L31.9844 0C36.4766 0 40.25 3.77344 40.25 8.26562C40.25 12.8477 36.4766 16.5312 31.9844 16.5312H2.15625C0.898437 16.5312 0 15.6328 0 14.375C0 13.207 0.898437 12.2187 2.15625 12.2187L31.9844 12.2187C34.1406 12.2187 35.9375 10.5117 35.9375 8.26562C35.9375 6.10937 34.1406 4.3125 31.9844 4.3125H28.0312C26.7734 4.3125 25.875 3.41406 25.875 2.15625ZM31.625 35.2187C31.625 34.0508 32.5234 33.0625 33.7812 33.0625H37.7344C39.8906 33.0625 41.6875 31.3555 41.6875 29.1094C41.6875 26.9531 39.8906 25.1562 37.7344 25.1562L2.15625 25.1562C0.898437 25.1562 0 24.2578 0 23C0 21.832 0.898437 20.8437 2.15625 20.8437L37.7344 20.8437C42.2266 20.8437 46 24.6172 46 29.1094C46 33.6914 42.2266 37.375 37.7344 37.375H33.7812C32.5234 37.375 31.625 36.4766 31.625 35.2187ZM10.7812 46C9.52344 46 8.625 45.1016 8.625 43.8437C8.625 42.6758 9.52344 41.6875 10.7812 41.6875H14.7344C16.8906 41.6875 18.6875 39.9805 18.6875 37.7344C18.6875 35.5781 16.8906 33.7812 14.7344 33.7812H2.15625C0.898437 33.7812 0 32.8828 0 31.625C0 30.457 0.898437 29.4687 2.15625 29.4687H14.7344C19.2266 29.4687 23 33.2422 23 37.7344C23 42.3164 19.2266 46 14.7344 46H10.7812Z" fill="#D9B31C"/>
</svg>
