<svg width="58" height="50" viewBox="0 0 58 50" fill="none" xmlns="http://www.w3.org/2000/svg">
<path d="M18.8301 30.1299L34.6387 30.1299C37.9022 30.1299 40.5829 32.7474 40.583 35.8672V36.9492L41.3418 36.4902L47.7764 32.5967C48.8283 32.0436 49.9515 31.6895 51.1523 31.6895H51.8574C55.0204 31.6895 57.5 34.1123 57.5 37.1348C57.4999 38.8947 56.4959 40.5939 54.915 41.584L54.9131 41.585L45.3477 47.6279C43.4108 48.8463 41.1869 49.5 38.9688 49.5H2.41699C1.28183 49.5 0.500165 48.6502 0.5 47.6611C0.5 46.588 1.26793 45.8213 2.41699 45.8213H38.9688C40.456 45.8213 41.9596 45.4123 43.1602 44.5752L43.1611 44.5762L52.8271 38.5332L52.834 38.5293C53.0435 38.394 53.2437 38.1987 53.3945 37.9717C53.5443 37.7462 53.6669 37.4561 53.667 37.1348C53.667 36.1611 52.8229 35.3672 51.8574 35.3672H51.1523C50.658 35.3673 50.2662 35.4908 49.8896 35.7305L40.4463 41.3691C40.1177 41.5257 39.7933 41.6055 39.3711 41.6055H25.7773C24.6285 41.6053 23.8613 40.8386 23.8613 39.7656C23.8616 38.7767 24.6425 37.927 25.7773 37.9268H34.6387C35.6843 37.9268 36.75 37.0552 36.75 35.8672C36.7499 35.3092 36.4672 34.7973 36.0947 34.4365C35.7209 34.0747 35.1984 33.8076 34.6387 33.8076H18.8301C18.0261 33.8076 17.2374 34.0605 16.6045 34.4131L16.3447 34.5693L8.28906 39.7354L8.26562 39.751C7.97503 39.9619 7.58604 40.0459 7.25 40.0459H2.41699C1.26807 40.0459 0.500193 39.28 0.5 38.207C0.5 37.2178 1.28171 36.3672 2.41699 36.3672H6.59082L6.71387 36.2881L14.1562 31.5186C15.6107 30.6755 17.2329 30.1299 18.8301 30.1299ZM29 0.5C29.2869 0.500001 29.5573 0.661811 29.8066 0.980469L36.4463 10.3281L36.4502 10.334C37.5978 11.9077 38.167 13.6567 38.167 15.4971V15.5947C38.1669 20.469 34.0761 24.4512 29 24.4512C23.9239 24.4512 19.8331 20.469 19.833 15.5947V15.4971C19.833 13.6594 20.4005 11.9071 21.4531 10.3281L28.0908 0.982422C28.3163 0.695164 28.6802 0.5 29 0.5Z" fill="#D9B31C" stroke="#222327"/>
</svg>
