<svg width="45" height="54" viewBox="0 0 45 54" fill="none" xmlns="http://www.w3.org/2000/svg">
<g clip-path="url(#clip0_755_496)">
<path d="M34.2373 1L43.9082 13.7402L33.8447 51.7607L24.8682 39.9219L24.5684 39.5264H10.7129L1.0918 26.8379L7.94727 1H34.2373Z" stroke="#FFCD05" stroke-width="2"/>
<path d="M26.622 26.4211C26.6229 27.299 26.3667 28.1573 25.8858 28.8876C25.4049 29.618 24.7209 30.1874 23.9204 30.524C23.1198 30.8606 22.2387 30.9491 21.3885 30.7784C20.5382 30.6077 19.7571 30.1855 19.1438 29.5651C18.5306 28.9447 18.1129 28.154 17.9434 27.2931C17.774 26.4322 17.8605 25.5398 18.192 24.7287C18.5235 23.9176 19.0851 23.2243 19.8057 22.7365C20.5263 22.2488 21.3737 21.9884 22.2405 21.9884C23.4017 21.9884 24.5155 22.4553 25.3371 23.2864C26.1587 24.1176 26.6208 25.2451 26.622 26.4211Z" fill="white"/>
<path d="M32.6116 17.9062C32.6125 18.6554 32.3939 19.388 31.9836 20.0114C31.5732 20.6347 30.9895 21.1208 30.3063 21.4082C29.6231 21.6955 28.8711 21.7712 28.1455 21.6256C27.4198 21.48 26.7531 21.1196 26.2297 20.5902C25.7062 20.0608 25.3497 19.386 25.205 18.6513C25.0603 17.9166 25.1341 17.1549 25.417 16.4627C25.6999 15.7704 26.1792 15.1787 26.7942 14.7624C27.4093 14.3461 28.1324 14.1238 28.8722 14.1238C29.363 14.1232 29.8492 14.2206 30.3028 14.4104C30.7565 14.6002 31.1688 14.8787 31.516 15.23C31.8633 15.5813 32.1388 15.9985 32.3268 16.4577C32.5148 16.9169 32.6116 17.4091 32.6116 17.9062Z" fill="white"/>
<path d="M22.8964 14.9957C22.8964 16.0492 22.5877 17.0791 22.0093 17.9549C21.431 18.8306 20.609 19.5128 19.6475 19.9152C18.686 20.3175 17.6283 20.4218 16.6082 20.215C15.5881 20.0081 14.6516 19.4993 13.9173 18.753C13.1829 18.0067 12.6838 17.0565 12.4831 16.0228C12.2823 14.989 12.389 13.9182 12.7896 12.9458C13.1902 11.9735 13.8668 11.1435 14.7335 10.5608C15.6003 9.97812 16.6182 9.66905 17.6586 9.6727C18.3486 9.6727 19.0319 9.81041 19.6693 10.078C20.3067 10.3455 20.8859 10.7377 21.3736 11.232C21.8613 11.7264 22.248 12.3132 22.5116 12.959C22.7753 13.6048 22.9107 14.2969 22.9101 14.9957" fill="white"/>
</g>
<defs>
<clipPath id="clip0_755_496">
<rect width="45" height="54" fill="white"/>
</clipPath>
</defs>
</svg>
