<svg width="45" height="54" viewBox="0 0 45 54" fill="none" xmlns="http://www.w3.org/2000/svg">
<g clip-path="url(#clip0_755_490)">
<path d="M34.2373 1L43.9082 13.7402L33.8447 51.7607L24.8682 39.9219L24.5684 39.5264H10.7129L1.0918 26.8379L7.94727 1H34.2373Z" stroke="#FFCD05" stroke-width="2"/>
<path d="M26.622 26.4211C26.6229 27.299 26.3667 28.1573 25.8858 28.8876C25.4049 29.618 24.7209 30.1874 23.9204 30.524C23.1198 30.8606 22.2387 30.9491 21.3885 30.7784C20.5382 30.6077 19.7571 30.1855 19.1438 29.5651C18.5306 28.9447 18.1129 28.154 17.9434 27.2931C17.774 26.4322 17.8605 25.5398 18.192 24.7287C18.5235 23.9176 19.0851 23.2243 19.8057 22.7365C20.5263 22.2488 21.3737 21.9884 22.2405 21.9884C23.4017 21.9884 24.5155 22.4553 25.3371 23.2864C26.1587 24.1176 26.6208 25.2451 26.622 26.4211Z" fill="white"/>
<path d="M32.6113 17.9062C32.6122 18.6554 32.3937 19.388 31.9833 20.0114C31.573 20.6347 30.9893 21.1208 30.3061 21.4082C29.6229 21.6955 28.8709 21.7712 28.1452 21.6256C27.4196 21.48 26.7528 21.1196 26.2294 20.5902C25.706 20.0608 25.3494 19.386 25.2048 18.6513C25.0601 17.9166 25.1339 17.1549 25.4168 16.4627C25.6997 15.7704 26.179 15.1787 26.794 14.7624C27.409 14.3461 28.1322 14.1238 28.8719 14.1238C29.3628 14.1232 29.8489 14.2206 30.3026 14.4104C30.7562 14.6002 31.1685 14.8787 31.5158 15.23C31.8631 15.5813 32.1386 15.9985 32.3266 16.4577C32.5146 16.9169 32.6113 17.4091 32.6113 17.9062Z" fill="#FFCD05"/>
<path d="M22.8962 14.9957C22.8962 16.0492 22.5875 17.0791 22.0091 17.9549C21.4307 18.8306 20.6088 19.5128 19.6473 19.9152C18.6858 20.3175 17.628 20.4218 16.608 20.215C15.5879 20.0081 14.6514 19.4993 13.917 18.753C13.1827 18.0067 12.6836 17.0565 12.4828 16.0228C12.2821 14.989 12.3888 13.9182 12.7894 12.9458C13.19 11.9735 13.8665 11.1435 14.7333 10.5608C15.6 9.97812 16.618 9.66905 17.6583 9.6727C18.3483 9.6727 19.0316 9.81041 19.6691 10.078C20.3065 10.3455 20.8856 10.7377 21.3733 11.232C21.861 11.7264 22.2478 12.3132 22.5114 12.959C22.7751 13.6048 22.9105 14.2969 22.9099 14.9957" fill="white"/>
</g>
<defs>
<clipPath id="clip0_755_490">
<rect width="45" height="54" fill="white"/>
</clipPath>
</defs>
</svg>
