<svg width="12" height="16" viewBox="0 0 12 16" fill="none" xmlns="http://www.w3.org/2000/svg">
<path d="M10.5 14V5L8 5C7.4375 5 7 4.5625 7 4V1.5L2 1.5C1.71875 1.5 1.5 1.75 1.5 2L1.5 14C1.5 14.2812 1.71875 14.5 2 14.5H10C10.25 14.5 10.5 14.2812 10.5 14ZM0 2C0 0.90625 0.875 0 2 0L7.15625 0C7.6875 0 8.1875 0.21875 8.5625 0.59375L11.4062 3.4375C11.7812 3.8125 12 4.3125 12 4.84375V14C12 15.125 11.0938 16 10 16H2C0.875 16 0 15.125 0 14L0 2ZM6 6.75C6.34375 6.75 6.625 7.03125 6.625 7.375V7.6875C6.84375 7.71875 7.0625 7.78125 7.25 7.8125C7.59375 7.90625 7.8125 8.25 7.71875 8.5625C7.65625 8.90625 7.3125 9.125 6.96875 9.03125C6.625 8.96875 6.28125 8.90625 5.96875 8.90625C5.71875 8.875 5.46875 8.9375 5.28125 9.03125C5.125 9.125 5.125 9.1875 5.125 9.21875C5.125 9.25 5.15625 9.28125 5.25 9.34375C5.4375 9.4375 5.75 9.53125 6.15625 9.625C6.5 9.71875 6.96875 9.84375 7.3125 10.0625C7.6875 10.2812 8.09375 10.6562 8.09375 11.2812C8.125 11.9375 7.75 12.375 7.3125 12.5938C7.09375 12.7188 6.84375 12.8125 6.59375 12.8438V13.1562C6.59375 13.5 6.3125 13.7812 5.96875 13.7812C5.625 13.7812 5.34375 13.5 5.34375 13.1562V12.8125C5.03125 12.75 4.75 12.6562 4.5 12.5938C4.4375 12.5625 4.375 12.5625 4.3125 12.5312C3.96875 12.4375 3.78125 12.0938 3.875 11.75C3.96875 11.4062 4.34375 11.2188 4.65625 11.3438C4.75 11.3438 4.8125 11.375 4.875 11.4062C5.3125 11.5312 5.65625 11.625 6 11.625C6.28125 11.6562 6.53125 11.5938 6.71875 11.5C6.84375 11.4375 6.875 11.375 6.875 11.2812C6.875 11.2812 6.875 11.2188 6.71875 11.125C6.5 11.0312 6.21875 10.9375 5.8125 10.8438L5.78125 10.8125C5.4375 10.7188 5 10.5938 4.65625 10.4375C4.28125 10.2188 3.875 9.84375 3.875 9.21875C3.84375 8.5625 4.28125 8.15625 4.6875 7.9375C4.90625 7.8125 5.125 7.75 5.375 7.6875V7.375C5.375 7.03125 5.65625 6.75 6 6.75ZM3 3L5.5 3C5.75 3 6 3.25 6 3.5C6 3.78125 5.75 4 5.5 4H3C2.71875 4 2.5 3.78125 2.5 3.5C2.5 3.25 2.71875 3 3 3ZM3 5H5.5C5.75 5 6 5.25 6 5.5C6 5.78125 5.75 6 5.5 6H3C2.71875 6 2.5 5.78125 2.5 5.5C2.5 5.25 2.71875 5 3 5Z" fill="#222426"/>
</svg>
