<svg width="20" height="19" viewBox="0 0 20 19" fill="none" xmlns="http://www.w3.org/2000/svg">
<path d="M19.2719 11.6855C19.0788 11.6855 18.8937 11.7623 18.7571 11.8988C18.6206 12.0353 18.5439 12.2205 18.5439 12.4136V14.9C18.5439 15.486 18.3111 16.048 17.8967 16.4624C17.4823 16.8768 16.9202 17.1096 16.3342 17.1096H3.66582C3.07977 17.1096 2.51773 16.8768 2.10334 16.4624C1.68894 16.048 1.45613 15.486 1.45613 14.9V12.4136C1.45613 12.2205 1.37943 12.0353 1.24289 11.8988C1.10635 11.7623 0.921162 11.6855 0.728067 11.6855C0.534972 11.6855 0.349785 11.7623 0.213246 11.8988C0.0767068 12.0353 0 12.2205 0 12.4136V14.9C0.000963748 15.8719 0.387492 16.8038 1.07476 17.491C1.76202 18.1783 2.69388 18.5648 3.66582 18.5658H16.3342C17.3061 18.5648 18.238 18.1783 18.9252 17.491C19.6125 16.8038 19.999 15.8719 20 14.9V12.4136C20 12.2205 19.9233 12.0353 19.7868 11.8988C19.6502 11.7623 19.465 11.6855 19.2719 11.6855Z" fill="#222426"/>
<path d="M9.4832 13.8114C9.55088 13.8797 9.63141 13.9338 9.72013 13.9708C9.80885 14.0078 9.90401 14.0268 10.0001 14.0268C10.0962 14.0268 10.1914 14.0078 10.2801 13.9708C10.3688 13.9338 10.4494 13.8797 10.5171 13.8114L14.6598 9.66873C14.7753 9.52964 14.835 9.35252 14.8272 9.17184C14.8194 8.99117 14.7446 8.81987 14.6174 8.69131C14.4902 8.56276 14.3197 8.48614 14.1391 8.47638C13.9585 8.46662 13.7808 8.52442 13.6405 8.63852L10.7282 11.5508V0.728067C10.7282 0.534972 10.6515 0.349785 10.5149 0.213246C10.3784 0.0767068 10.1932 0 10.0001 0C9.80703 0 9.62184 0.0767068 9.4853 0.213246C9.34876 0.349785 9.27206 0.534972 9.27206 0.728067V11.5399L6.35979 8.62759C6.22318 8.49098 6.03789 8.41423 5.84468 8.41423C5.65148 8.41423 5.46619 8.49098 5.32958 8.62759C5.19296 8.76421 5.11621 8.9495 5.11621 9.1427C5.11621 9.3359 5.19296 9.52119 5.32958 9.65781L9.4832 13.8114Z" fill="#222426"/>
</svg>
